<svg width="56" height="55" viewBox="0 0 56 55" fill="none" xmlns="http://www.w3.org/2000/svg">
<path d="M41.9116 47.4594C32.5354 56.8356 17.3397 56.8285 7.97052 47.4594C-1.39865 38.0902 -1.40572 22.8945 7.97052 13.5183C13.5637 7.92504 21.2358 5.66937 28.5049 6.75831L27.9816 9.71402C21.6389 8.80185 14.9567 10.7747 10.0918 15.6396C1.90354 23.8279 1.90354 37.1498 10.0918 45.3381C18.2801 53.5264 31.602 53.5264 39.7903 45.3381C44.6481 40.4802 46.621 33.7981 45.7159 27.4624L48.6716 26.9391C49.7535 34.2011 47.5049 41.8662 41.9116 47.4594Z" fill="#DF3434"/>
<path d="M36.6083 42.1562C30.1595 48.605 19.7156 48.5979 13.2738 42.1562C6.83208 35.7144 6.82501 25.2705 13.2738 18.8216C17.071 15.0245 22.2682 13.4618 27.2038 14.1406L26.6806 17.1104C22.6713 16.5943 18.4711 17.867 15.3951 20.943C10.1272 26.2109 10.1272 34.7669 15.3951 40.0348C20.6631 45.3028 29.2191 45.3028 34.487 40.0348C37.5559 36.966 38.8357 32.7729 38.3195 28.7636L41.2823 28.2474C41.9611 33.183 40.3984 38.3661 36.6083 42.1562Z" fill="#DF3434"/>
<path d="M31.305 36.853C27.7836 40.3744 22.0914 40.3673 18.5771 36.853C15.0628 33.3386 15.0557 27.6464 18.5771 24.125C20.5782 22.1239 23.2794 21.2613 25.8957 21.5441L25.3724 24.5139C23.6966 24.3937 21.9783 24.9665 20.6984 26.2464C18.3579 28.5869 18.3579 32.3911 20.6984 34.7316C23.039 37.0722 26.8432 37.0722 29.1837 34.7316C30.4565 33.4588 31.0363 31.7477 30.9161 30.0718L33.886 29.5485C34.1617 32.1578 33.2991 34.8589 31.305 36.853Z" fill="#DF3434"/>
<path d="M52.0657 10.5767L44.5775 10.8383L44.832 3.34302L34.4941 13.6809L34.2891 19.7125L24.1704 29.8312C23.7815 30.2201 23.7815 30.8565 24.1704 31.2455C24.5593 31.6344 25.1957 31.6344 25.5846 31.2455L35.7033 21.1268L41.7349 20.9217L52.0728 10.5838L52.0657 10.5767ZM40.8722 18.9418L36.6225 19.0903L36.3185 18.7862L36.467 14.5365L42.6612 8.34226L42.5834 10.7818L42.5056 12.9243L44.6482 12.8465L47.0523 12.7617L40.8652 18.9489L40.8722 18.9418Z" fill="white"/>
</svg>
